<svg width="45" height="50" viewBox="0 0 45 50" fill="none" xmlns="http://www.w3.org/2000/svg">
<path d="M40 5H37.5V2.5C37.5 1.125 36.375 0 35 0C33.625 0 32.5 1.125 32.5 2.5V5H12.5V2.5C12.5 1.125 11.375 0 10 0C8.625 0 7.5 1.125 7.5 2.5V5H5C2.225 5 0.025 7.25 0.025 10L0 45C0 46.3261 0.526784 47.5979 1.46447 48.5355C2.40215 49.4732 3.67392 50 5 50H40C42.75 50 45 47.75 45 45V10C45 7.25 42.75 5 40 5ZM40 42.5C40 43.875 38.875 45 37.5 45H7.5C6.125 45 5 43.875 5 42.5V17.5H40V42.5ZM10 22.5H15V27.5H10V22.5ZM20 22.5H25V27.5H20V22.5ZM30 22.5H35V27.5H30V22.5Z" fill="#232323"/>
</svg>
