<svg width="17" height="16" viewBox="0 0 17 16" fill="none" xmlns="http://www.w3.org/2000/svg">
<g id="Group 16">
<path id="Subtract" fill-rule="evenodd" clip-rule="evenodd" d="M4.66602 0C2.45688 0 0.666016 1.79086 0.666016 4V12C0.666016 14.2091 2.45688 16 4.66602 16H12.666C14.8752 16 16.666 14.2091 16.666 12V4C16.666 1.79086 14.8752 0 12.666 0H4.66602ZM11.3327 10.469H9.66601V15.994H6.99935V10.469H4.99935V7.86902H6.99935V6.04902C6.99935 4.07107 8.28468 2.99402 10.0947 2.99402C10.9613 2.99402 11.782 3.05707 11.9993 3.08502V5.26902H10.9993C9.66601 5.26902 9.66601 5.89952 9.66601 6.56902V7.86902H11.9993L11.3327 10.469Z" fill="white"/>
</g>
</svg>
