<svg version="1.0" xmlns="http://www.w3.org/2000/svg" width="810.000000pt" height="687.000000pt" viewBox="0 0 810.000000 687.000000" preserveAspectRatio="xMidYMid meet">
	<g transform="translate(0.000000,687.000000) scale(0.100000,-0.100000)" fill="#fff" stroke="none">
		<path d="M3900 6529 c-794 -42 -1533 -380 -2090 -955 -689 -712 -999 -1686
-849 -2671 202 -1334 1259 -2403 2594 -2622 209 -35 363 -44 604 -38 310 9
555 47 838 133 247 75 605 239 676 311 136 135 35 372 -159 373 -44 0 -73 -10
-193 -70 -330 -163 -594 -244 -928 -285 -152 -19 -453 -22 -603 -5 -625 69
-1193 341 -1630 780 -932 937 -1052 2398 -286 3474 415 583 1050 979 1753
1096 768 127 1544 -78 2150 -569 116 -94 313 -292 409 -411 205 -256 388 -607
479 -921 75 -257 106 -482 106 -764 0 -350 -52 -638 -172 -958 -86 -231 -256
-529 -409 -720 l-54 -68 -818 818 -818 818 459 460 c502 504 487 484 479 600
-5 78 -38 132 -105 172 -66 38 -158 40 -220 3 -60 -36 -1120 -1110 -1138
-1154 -23 -54 -19 -124 10 -182 36 -73 1989 -2021 2057 -2052 70 -32 149 -30
210 6 75 44 279 275 407 462 272 396 443 819 520 1282 69 413 52 861 -45 1258
-190 772 -658 1439 -1319 1878 -567 377 -1232 558 -1915 521z" />
		<path d="M3427 5396 c-57 -21 -102 -60 -126 -110 -20 -43 -21 -62 -21 -275 l0
-229 -192 -4 c-191 -3 -194 -3 -241 -31 -69 -41 -101 -94 -105 -177 -5 -77 9
-113 66 -173 54 -56 104 -67 304 -67 l168 0 0 -1400 c0 -1364 1 -1402 19
-1439 11 -20 37 -53 59 -73 106 -96 275 -59 343 73 18 37 19 75 19 1439 l0
1400 168 0 c200 0 250 11 304 67 57 60 71 96 66 173 -4 83 -36 136 -105 177
-47 28 -50 28 -240 31 l-193 4 0 229 c0 213 -1 232 -21 275 -34 71 -118 123
-199 123 -19 0 -52 -6 -73 -13z" />
	</g>
</svg>
